<mxfile host="app.diagrams.net" modified="2024-07-21T06:36:29.880Z" agent="Mozilla/5.0 (Windows NT 10.0; Win64; x64) AppleWebKit/537.36 (KHTML, like Gecko) Chrome/126.0.0.0 Safari/537.36" etag="FVJgqJ8T50wZs1EaLH4S" version="24.7.2" type="device">
  <diagram id="R2lEEEUBdFMjLlhIrx00" name="Page-1">
    <mxGraphModel dx="899" dy="476" grid="1" gridSize="10" guides="1" tooltips="1" connect="1" arrows="1" fold="1" page="1" pageScale="1" pageWidth="850" pageHeight="1100" math="0" shadow="0" extFonts="Permanent Marker^https://fonts.googleapis.com/css?family=Permanent+Marker">
      <root>
        <mxCell id="0" />
        <mxCell id="1" parent="0" />
        <mxCell id="tC3bFPR7Mm4Z95cbtMgY-3" value="Customer" style="swimlane;fontStyle=0;childLayout=stackLayout;horizontal=1;startSize=30;horizontalStack=0;resizeParent=1;resizeParentMax=0;resizeLast=0;collapsible=1;marginBottom=0;whiteSpace=wrap;html=1;" vertex="1" parent="1">
          <mxGeometry x="120" y="120" width="200" height="120" as="geometry" />
        </mxCell>
        <mxCell id="tC3bFPR7Mm4Z95cbtMgY-4" value="customerID(PK)" style="text;strokeColor=none;fillColor=none;align=left;verticalAlign=middle;spacingLeft=4;spacingRight=4;overflow=hidden;points=[[0,0.5],[1,0.5]];portConstraint=eastwest;rotatable=0;whiteSpace=wrap;html=1;" vertex="1" parent="tC3bFPR7Mm4Z95cbtMgY-3">
          <mxGeometry y="30" width="200" height="30" as="geometry" />
        </mxCell>
        <mxCell id="tC3bFPR7Mm4Z95cbtMgY-5" value="Name" style="text;strokeColor=none;fillColor=none;align=left;verticalAlign=middle;spacingLeft=4;spacingRight=4;overflow=hidden;points=[[0,0.5],[1,0.5]];portConstraint=eastwest;rotatable=0;whiteSpace=wrap;html=1;" vertex="1" parent="tC3bFPR7Mm4Z95cbtMgY-3">
          <mxGeometry y="60" width="200" height="30" as="geometry" />
        </mxCell>
        <mxCell id="tC3bFPR7Mm4Z95cbtMgY-6" value="Address" style="text;strokeColor=none;fillColor=none;align=left;verticalAlign=middle;spacingLeft=4;spacingRight=4;overflow=hidden;points=[[0,0.5],[1,0.5]];portConstraint=eastwest;rotatable=0;whiteSpace=wrap;html=1;" vertex="1" parent="tC3bFPR7Mm4Z95cbtMgY-3">
          <mxGeometry y="90" width="200" height="30" as="geometry" />
        </mxCell>
        <mxCell id="tC3bFPR7Mm4Z95cbtMgY-8" value="" style="endArrow=classic;html=1;rounded=0;exitX=1.002;exitY=0.773;exitDx=0;exitDy=0;exitPerimeter=0;entryX=0.003;entryY=0.106;entryDx=0;entryDy=0;entryPerimeter=0;" edge="1" parent="1" source="tC3bFPR7Mm4Z95cbtMgY-5">
          <mxGeometry relative="1" as="geometry">
            <mxPoint x="340" y="250" as="sourcePoint" />
            <mxPoint x="450.75" y="203.17999999999995" as="targetPoint" />
          </mxGeometry>
        </mxCell>
        <mxCell id="tC3bFPR7Mm4Z95cbtMgY-11" value="has" style="edgeLabel;html=1;align=center;verticalAlign=middle;resizable=0;points=[];" vertex="1" connectable="0" parent="tC3bFPR7Mm4Z95cbtMgY-8">
          <mxGeometry x="0.0609" y="-3" relative="1" as="geometry">
            <mxPoint as="offset" />
          </mxGeometry>
        </mxCell>
        <mxCell id="tC3bFPR7Mm4Z95cbtMgY-12" value="Insurance Plan" style="swimlane;fontStyle=0;childLayout=stackLayout;horizontal=1;startSize=30;horizontalStack=0;resizeParent=1;resizeParentMax=0;resizeLast=0;collapsible=1;marginBottom=0;whiteSpace=wrap;html=1;" vertex="1" parent="1">
          <mxGeometry x="450" y="120" width="190" height="120" as="geometry" />
        </mxCell>
        <mxCell id="tC3bFPR7Mm4Z95cbtMgY-13" value="PlanID(PK)" style="text;strokeColor=none;fillColor=none;align=left;verticalAlign=middle;spacingLeft=4;spacingRight=4;overflow=hidden;points=[[0,0.5],[1,0.5]];portConstraint=eastwest;rotatable=0;whiteSpace=wrap;html=1;" vertex="1" parent="tC3bFPR7Mm4Z95cbtMgY-12">
          <mxGeometry y="30" width="190" height="30" as="geometry" />
        </mxCell>
        <mxCell id="tC3bFPR7Mm4Z95cbtMgY-14" value="Coverage Details" style="text;strokeColor=none;fillColor=none;align=left;verticalAlign=middle;spacingLeft=4;spacingRight=4;overflow=hidden;points=[[0,0.5],[1,0.5]];portConstraint=eastwest;rotatable=0;whiteSpace=wrap;html=1;" vertex="1" parent="tC3bFPR7Mm4Z95cbtMgY-12">
          <mxGeometry y="60" width="190" height="30" as="geometry" />
        </mxCell>
        <mxCell id="tC3bFPR7Mm4Z95cbtMgY-15" value="PhoneID(FK)" style="text;strokeColor=none;fillColor=none;align=left;verticalAlign=middle;spacingLeft=4;spacingRight=4;overflow=hidden;points=[[0,0.5],[1,0.5]];portConstraint=eastwest;rotatable=0;whiteSpace=wrap;html=1;" vertex="1" parent="tC3bFPR7Mm4Z95cbtMgY-12">
          <mxGeometry y="90" width="190" height="30" as="geometry" />
        </mxCell>
        <mxCell id="tC3bFPR7Mm4Z95cbtMgY-16" value="Accident" style="swimlane;fontStyle=0;childLayout=stackLayout;horizontal=1;startSize=30;horizontalStack=0;resizeParent=1;resizeParentMax=0;resizeLast=0;collapsible=1;marginBottom=0;whiteSpace=wrap;html=1;" vertex="1" parent="1">
          <mxGeometry x="450" y="280" width="190" height="120" as="geometry" />
        </mxCell>
        <mxCell id="tC3bFPR7Mm4Z95cbtMgY-17" value="AccidentID(PK)" style="text;strokeColor=none;fillColor=none;align=left;verticalAlign=middle;spacingLeft=4;spacingRight=4;overflow=hidden;points=[[0,0.5],[1,0.5]];portConstraint=eastwest;rotatable=0;whiteSpace=wrap;html=1;" vertex="1" parent="tC3bFPR7Mm4Z95cbtMgY-16">
          <mxGeometry y="30" width="190" height="30" as="geometry" />
        </mxCell>
        <mxCell id="tC3bFPR7Mm4Z95cbtMgY-18" value="Date" style="text;strokeColor=none;fillColor=none;align=left;verticalAlign=middle;spacingLeft=4;spacingRight=4;overflow=hidden;points=[[0,0.5],[1,0.5]];portConstraint=eastwest;rotatable=0;whiteSpace=wrap;html=1;" vertex="1" parent="tC3bFPR7Mm4Z95cbtMgY-16">
          <mxGeometry y="60" width="190" height="30" as="geometry" />
        </mxCell>
        <mxCell id="tC3bFPR7Mm4Z95cbtMgY-19" value="PhoneID(FK)" style="text;strokeColor=none;fillColor=none;align=left;verticalAlign=middle;spacingLeft=4;spacingRight=4;overflow=hidden;points=[[0,0.5],[1,0.5]];portConstraint=eastwest;rotatable=0;whiteSpace=wrap;html=1;" vertex="1" parent="tC3bFPR7Mm4Z95cbtMgY-16">
          <mxGeometry y="90" width="190" height="30" as="geometry" />
        </mxCell>
        <mxCell id="tC3bFPR7Mm4Z95cbtMgY-20" value="Mobile Phone" style="swimlane;fontStyle=0;childLayout=stackLayout;horizontal=1;startSize=30;horizontalStack=0;resizeParent=1;resizeParentMax=0;resizeLast=0;collapsible=1;marginBottom=0;whiteSpace=wrap;html=1;" vertex="1" parent="1">
          <mxGeometry x="120" y="280" width="200" height="120" as="geometry" />
        </mxCell>
        <mxCell id="tC3bFPR7Mm4Z95cbtMgY-21" value="PhoneID(PK)" style="text;strokeColor=none;fillColor=none;align=left;verticalAlign=middle;spacingLeft=4;spacingRight=4;overflow=hidden;points=[[0,0.5],[1,0.5]];portConstraint=eastwest;rotatable=0;whiteSpace=wrap;html=1;" vertex="1" parent="tC3bFPR7Mm4Z95cbtMgY-20">
          <mxGeometry y="30" width="200" height="30" as="geometry" />
        </mxCell>
        <mxCell id="tC3bFPR7Mm4Z95cbtMgY-22" value="Model" style="text;strokeColor=none;fillColor=none;align=left;verticalAlign=middle;spacingLeft=4;spacingRight=4;overflow=hidden;points=[[0,0.5],[1,0.5]];portConstraint=eastwest;rotatable=0;whiteSpace=wrap;html=1;" vertex="1" parent="tC3bFPR7Mm4Z95cbtMgY-20">
          <mxGeometry y="60" width="200" height="30" as="geometry" />
        </mxCell>
        <mxCell id="tC3bFPR7Mm4Z95cbtMgY-23" value="CustomerID(FK)" style="text;strokeColor=none;fillColor=none;align=left;verticalAlign=middle;spacingLeft=4;spacingRight=4;overflow=hidden;points=[[0,0.5],[1,0.5]];portConstraint=eastwest;rotatable=0;whiteSpace=wrap;html=1;" vertex="1" parent="tC3bFPR7Mm4Z95cbtMgY-20">
          <mxGeometry y="90" width="200" height="30" as="geometry" />
        </mxCell>
        <mxCell id="tC3bFPR7Mm4Z95cbtMgY-24" value="" style="endArrow=classic;html=1;rounded=0;exitX=0.995;exitY=0.956;exitDx=0;exitDy=0;exitPerimeter=0;" edge="1" parent="1" source="tC3bFPR7Mm4Z95cbtMgY-21">
          <mxGeometry relative="1" as="geometry">
            <mxPoint x="340" y="250" as="sourcePoint" />
            <mxPoint x="450" y="339" as="targetPoint" />
          </mxGeometry>
        </mxCell>
        <mxCell id="tC3bFPR7Mm4Z95cbtMgY-25" value="Covered by" style="edgeLabel;resizable=0;html=1;;align=center;verticalAlign=middle;" connectable="0" vertex="1" parent="tC3bFPR7Mm4Z95cbtMgY-24">
          <mxGeometry relative="1" as="geometry" />
        </mxCell>
        <mxCell id="tC3bFPR7Mm4Z95cbtMgY-28" value="" style="endArrow=classic;html=1;rounded=0;exitX=0.501;exitY=1.118;exitDx=0;exitDy=0;exitPerimeter=0;entryX=0.5;entryY=0;entryDx=0;entryDy=0;" edge="1" parent="1" source="tC3bFPR7Mm4Z95cbtMgY-6" target="tC3bFPR7Mm4Z95cbtMgY-20">
          <mxGeometry relative="1" as="geometry">
            <mxPoint x="340" y="250" as="sourcePoint" />
            <mxPoint x="500" y="250" as="targetPoint" />
          </mxGeometry>
        </mxCell>
        <mxCell id="tC3bFPR7Mm4Z95cbtMgY-29" value="has" style="edgeLabel;resizable=0;html=1;;align=center;verticalAlign=middle;" connectable="0" vertex="1" parent="tC3bFPR7Mm4Z95cbtMgY-28">
          <mxGeometry relative="1" as="geometry" />
        </mxCell>
        <mxCell id="tC3bFPR7Mm4Z95cbtMgY-30" value="Source" style="edgeLabel;resizable=0;html=1;;align=left;verticalAlign=bottom;" connectable="0" vertex="1" parent="tC3bFPR7Mm4Z95cbtMgY-28">
          <mxGeometry x="-1" relative="1" as="geometry" />
        </mxCell>
      </root>
    </mxGraphModel>
  </diagram>
</mxfile>
